Coordinates
version=1
nRows=24
nColumns=24
inDegrees=yes

Units are S.I. units (second, meters, Newtons, ...)
Angles are in degrees.

endheader
time	pelvis_tilt	pelvis_list	pelvis_rotation	pelvis_tx	pelvis_ty	pelvis_tz	hip_flexion_r	hip_adduction_r	hip_rotation_r	knee_angle_r	ankle_angle_r	subtalar_angle_r	mtp_angle_r	hip_flexion_l	hip_adduction_l	hip_rotation_l	knee_angle_l	ankle_angle_l	subtalar_angle_l	mtp_angle_l	lumbar_extension	lumbar_bending	lumbar_rotation
      0.01000000	     64.41264881	      3.67360291	     -2.24943516	      0.76580871	      1.02358528	     -0.28697508	     10.04553156	     -6.50103023	      3.50786388	     -5.04177557	     -6.27313580	    -17.24575195	    -18.31290596	     -0.22040599	     -3.19704447	    -13.03682213	    -62.63402302	      9.66513098	     -9.12568016	    -65.99663652	      0.00000000	      0.00000000	      0.00000000
      0.02000000	     64.41481213	      3.62552229	     -2.20968684	      0.76577857	      1.02361539	     -0.28697586	     10.02805470	     -6.45702631	      3.47998796	     -5.03566126	     -6.28388311	    -17.22106155	    -18.30548410	     -0.22042926	     -3.25031503	    -12.99065752	    -62.63007528	      9.65540319	     -9.11194212	    -66.00064905	      0.00000000	      0.00000000	      0.00000000
      0.03000000	     64.41411490	      3.60398438	     -2.19157925	      0.76576231	      1.02361602	     -0.28697652	     10.02343934	     -6.43825422	      3.46461416	     -5.03140021	     -6.29036746	    -17.20508836	    -18.29748459	     -0.21662711	     -3.27503609	    -12.96875065	    -62.63051236	      9.64826130	     -9.10507125	    -66.00833933	      0.00000000	      0.00000000	      0.00000000
      0.04000000	     64.40996562	      3.60172596	     -2.18776278	      0.76576198	      1.02360495	     -0.28698004	     10.02841187	     -6.43838122	      3.45868882	     -5.02868161	     -6.29335689	    -17.19528087	    -18.28933927	     -0.20997058	     -3.27896891	    -12.96352400	    -62.63369365	      9.64271942	     -9.10349657	    -66.02129742	      0.00000000	      0.00000000	      0.00000000
      0.05000000	     64.40268506	      3.61052233	     -2.19060942	      0.76577614	      1.02359516	     -0.28698453	     10.03897317	     -6.44976433	      3.45852978	     -5.02712376	     -6.29370559	    -17.18887870	    -18.28159420	     -0.20151694	     -3.27086115	    -12.96667854	    -62.63779021	      9.63766240	     -9.10533779	    -66.04152461	      0.00000000	      0.00000000	      0.00000000
      0.06000000	     64.39361838	      3.62327055	     -2.19448508	      0.76579904	      1.02358980	     -0.28698624	     10.05124822	     -6.46524492	      3.46055834	     -5.02636500	     -6.29218354	    -17.18370900	    -18.27474950	     -0.19241105	     -3.25827618	    -12.97152857	    -62.64136678	      9.63211365	     -9.10879918	    -66.07103130	      0.00000000	      0.00000000	      0.00000000
      0.07000000	     64.38463967	      3.63506093	     -2.19656021	      0.76582348	      1.02358713	     -0.28698670	     10.06212726	     -6.47942033	      3.46176587	     -5.02608389	     -6.28943733	    -17.17857929	    -18.26913137	     -0.18403166	     -3.24657082	    -12.97410343	    -62.64366918	      9.62537148	     -9.11240552	    -66.11152843	      0.00000000	      0.00000000	      0.00000000
      0.08000000	     64.37757893	      3.64318044	     -2.19643219	      0.76584465	      1.02358578	     -0.28698912	     10.06958708	     -6.48929166	      3.46001439	     -5.02598334	     -6.28602956	    -17.17331224	    -18.26483876	     -0.17781945	     -3.23866190	    -12.97313776	    -62.64451634	      9.61704327	     -9.11510280	    -66.16421833	      0.00000000	      0.00000000	      0.00000000
      0.09000000	     64.37371614	      3.64658479	     -2.19504155	      0.76585852	      1.02358598	     -0.28699075	     10.07266696	     -6.49419533	      3.45423502	     -5.02580786	     -6.28249767	    -17.16854337	    -18.26176788	     -0.17485783	     -3.23530941	    -12.96933835	    -62.64399134	      9.60702043	     -9.11627715	    -66.22968794	      0.00000000	      0.00000000	      0.00000000
      0.10000000	     64.37347455	      3.64559971	     -2.19350614	      0.76586079	      1.02358746	     -0.28698886	     10.07134380	     -6.49510652	      3.44449389	     -5.02535436	     -6.27939148	    -17.16538658	    -18.25968495	     -0.17556263	     -3.23581497	    -12.96437637	    -62.64224074	      9.59542663	     -9.11574193	    -66.30790021	      0.00000000	      0.00000000	      0.00000000
      0.11000000	     64.37638065	      3.64175967	     -2.19241221	      0.76585339	      1.02358699	     -0.28698689	     10.06640647	     -6.49372255	      3.43182723	     -5.02447789	     -6.27728756	    -17.16504258	    -18.25830690	     -0.17961902	     -3.23879898	    -12.95996074	    -62.63949717	      9.58254835	     -9.11370695	    -66.39827409	      0.00000000	      0.00000000	      0.00000000
      0.12000000	     64.38127915	      3.63715405	     -2.19172698	      0.76584385	      1.02358431	     -0.28698824	     10.05923296	     -6.49173870	      3.41783019	     -5.02315078	     -6.27678170	    -17.16842716	    -18.25734950	     -0.18611169	     -3.24278762	    -12.95719436	    -62.63618399	      9.56874192	     -9.11071978	    -66.49983972	      0.00000000	      0.00000000	      0.00000000
      0.13000000	     64.38678441	      3.63343412	     -2.19117087	      0.76583493	      1.02358580	     -0.28699149	     10.05144644	     -6.49040778	      3.40411903	     -5.02153339	     -6.27843319	    -17.17589331	    -18.25651935	     -0.19378619	     -3.24661331	    -12.95630335	    -62.63290571	      9.55431960	     -9.10755871	    -66.61144933	      0.00000000	      0.00000000	      0.00000000
      0.14000000	     64.39179183	      3.63131229	     -2.19063229	      0.76582688	      1.02359522	     -0.28699236	     10.04449519	     -6.49022716	      3.39183742	     -5.01998397	     -6.28263596	    -17.18708413	    -18.25546669	     -0.20134862	     -3.24962294	    -12.95676720	    -62.63025500	      9.53944406	     -9.10507167	    -66.73201800	      0.00000000	      0.00000000	      0.00000000
      0.15000000	     64.39580175	      3.63064671	     -2.19025329	      0.76582616	      1.02360713	     -0.28698749	     10.03929060	     -6.49080437	      3.38138115	     -5.01897247	     -6.28940369	    -17.20090354	    -18.25373694	     -0.20774102	     -3.25165615	    -12.95775909	    -62.62854774	      9.52407139	     -9.10399095	    -66.86075919	      0.00000000	      0.00000000	      0.00000000
      0.16000000	     64.39892608	      3.63067132	     -2.19029217	      0.76583353	      1.02361258	     -0.28697906	     10.03609001	     -6.49118654	      3.37244976	     -5.01889366	     -6.29809288	    -17.21556233	    -18.25075219	     -0.21239750	     -3.25292359	    -12.95861674	    -62.62769173	      9.50796522	     -9.10477667	    -66.99737294	      0.00000000	      0.00000000	      0.00000000
      0.17000000	     64.40161306	      3.63038939	     -2.19098005	      0.76583748	      1.02360890	     -0.28697348	     10.03463054	     -6.49058617	      3.36440144	     -5.01988471	     -6.30717032	    -17.22864672	    -18.24584990	     -0.21539127	     -3.25386893	    -12.95908703	    -62.62727127	      9.49076742	     -9.10753666	    -67.14214035	      0.00000000	      0.00000000	      0.00000000
      0.18000000	     64.40423327	      3.62913432	     -2.19240338	      0.76583162	      1.02360200	     -0.28697440	     10.03430670	     -6.48889318	      3.35678224	     -5.02180288	     -6.31416375	    -17.23718707	    -18.23839733	     -0.21737508	     -3.25488810	    -12.95933386	    -62.62675393	      9.47208269	     -9.11204629	    -67.29588104	      0.00000000	      0.00000000	      0.00000000
      0.19000000	     64.40683626	      3.62694007	     -2.19446697	      0.76582016	      1.02359827	     -0.28698039	     10.03429133	     -6.48659388	      3.34985390	     -5.02436611	     -6.31587500	    -17.23779437	    -18.22796423	     -0.21933348	     -3.25599863	    -12.95979789	    -62.62568872	      9.45156384	     -9.11785107	    -67.45974470	      0.00000000	      0.00000000	      0.00000000
      0.20000000	     64.40935608	      3.62455029	     -2.19692583	      0.76580976	      1.02359921	     -0.28698644	     10.03368534	     -6.48444133	      3.34493611	     -5.02732569	     -6.30886248	    -17.22699889	    -18.21450045	     -0.22222437	     -3.25682536	    -12.96093348	    -62.62381497	      9.42901922	     -9.12441105	    -67.63482723	      0.00000000	      0.00000000	      0.00000000
      0.21000000	     64.41205244	      3.62308161	     -2.19940993	      0.76580650	      1.02360407	     -0.28698740	     10.03166607	     -6.48328820	      3.34436883	     -5.03057964	     -6.29015142	    -17.20187406	    -18.19847160	     -0.22666427	     -3.25697489	    -12.96291372	    -62.62108002	      9.40452541	     -9.13125166	    -67.82161520	      0.00000000	      0.00000000	      0.00000000
      0.22000000	     64.41553999	      3.62331567	     -2.20145342	      0.76581172	      1.02361145	     -0.28698382	     10.02739510	     -6.48414096	      3.35091266	     -5.03422781	     -6.25808474	    -17.16090391	    -18.18094120	     -0.23277691	     -3.25640878	    -12.96550367	    -62.61758180	      9.37848817	     -9.13808456	    -68.01927952	      0.00000000	      0.00000000	      0.00000000
      0.23000000	     64.42019356	      3.62498757	     -2.20259815	      0.76582092	      1.02361773	     -0.28698138	     10.01974260	     -6.48822898	      3.36659355	     -5.03855007	     -6.21315091	    -17.10490005	    -18.16361339	     -0.24017649	     -3.25545740	    -12.96816068	    -62.61344933	      9.35162401	     -9.14486477	    -68.22486839	      0.00000000	      0.00000000	      0.00000000
      0.24000000	     64.42556571	      3.62680006	     -2.20258664	      0.76582802	      1.02361941	     -0.28698324	     10.00745503	     -6.49669533	      3.39135971	     -5.04379796	     -6.15853524	    -17.03762395	    -18.14885611	     -0.24813406	     -3.25451751	    -12.97021210	    -62.60877613	      9.32489222	     -9.15176844	    -68.43248230	      0.00000000	      0.00000000	      0.00000000
